<svg id="visual" viewBox="0 0 900 600" width="900" height="600" xmlns="http://www.w3.org/2000/svg" xmlns:xlink="http://www.w3.org/1999/xlink" version="1.1"><rect x="0" y="0" width="900" height="600" fill="#fafafa"></rect><defs><linearGradient id="grad1_0" x1="33.3%" y1="0%" x2="100%" y2="100%"><stop offset="20%" stop-color="#fafafa" stop-opacity="1"></stop><stop offset="80%" stop-color="#fafafa" stop-opacity="1"></stop></linearGradient></defs><defs><linearGradient id="grad2_0" x1="0%" y1="0%" x2="66.7%" y2="100%"><stop offset="20%" stop-color="#fafafa" stop-opacity="1"></stop><stop offset="80%" stop-color="#fafafa" stop-opacity="1"></stop></linearGradient></defs><g transform="translate(900, 0)"><path d="M0 405.6C-43.5 401.4 -86.9 397.2 -123.3 379.5C-159.7 361.8 -189 330.6 -222.2 305.8C-255.4 281 -292.6 262.7 -322 233.9C-351.4 205.2 -373.1 166.1 -385.8 125.3C-398.4 84.6 -402 42.3 -405.6 0L0 0Z" fill="#ffa844"></path></g><g transform="translate(0, 600)"><path d="M0 -405.6C45.6 -405.2 91.2 -404.7 123.6 -380.4C156 -356.2 175.2 -308.1 202.8 -279.1C230.4 -250.1 266.4 -240.3 301 -218.7C335.5 -197.1 368.6 -163.7 385.8 -125.3C403 -86.9 404.3 -43.5 405.6 0L0 0Z" fill="#ffa844"></path></g></svg>