<svg id="visual" viewBox="0 0 900 600" width="900" height="600" xmlns="http://www.w3.org/2000/svg" xmlns:xlink="http://www.w3.org/1999/xlink" version="1.1"><rect x="0" y="0" width="900" height="600" fill="#fafafa"></rect><defs><linearGradient id="grad1_0" x1="33.3%" y1="0%" x2="100%" y2="100%"><stop offset="20%" stop-color="#fafafa" stop-opacity="1"></stop><stop offset="80%" stop-color="#fafafa" stop-opacity="1"></stop></linearGradient></defs><defs><linearGradient id="grad2_0" x1="0%" y1="0%" x2="66.7%" y2="100%"><stop offset="20%" stop-color="#fafafa" stop-opacity="1"></stop><stop offset="80%" stop-color="#fafafa" stop-opacity="1"></stop></linearGradient></defs><g transform="translate(900, 0)"><path d="M0 378.6C-39.2 349.9 -78.4 321.2 -127.4 307.7C-176.4 294.1 -235.2 295.6 -267.7 267.7C-300.2 239.8 -306.5 182.3 -320.6 132.8C-334.7 83.3 -356.6 41.6 -378.6 0L0 0Z" fill="#ffa844"></path></g><g transform="translate(0, 600)"><path d="M0 -378.6C46 -365.8 92.1 -353.1 139.7 -337.2C187.3 -321.3 236.4 -302.3 267.7 -267.7C299 -233.1 312.5 -183.1 328 -135.9C343.5 -88.7 361 -44.3 378.6 0L0 0Z" fill="#ffa844"></path></g></svg>