<svg id="visual" viewBox="0 0 900 600" width="900" height="600" xmlns="http://www.w3.org/2000/svg" xmlns:xlink="http://www.w3.org/1999/xlink" version="1.1"><rect x="0" y="0" width="900" height="600" fill="#ffffff"></rect><g fill="#ffc98b"><circle r="25" cx="57" cy="354"></circle><circle r="7" cx="434" cy="581"></circle><circle r="15" cx="500" cy="388"></circle><circle r="22" cx="230" cy="187"></circle><circle r="18" cx="561" cy="429"></circle><circle r="6" cx="874" cy="319"></circle><circle r="16" cx="502" cy="441"></circle><circle r="19" cx="718" cy="491"></circle><circle r="17" cx="867" cy="57"></circle><circle r="15" cx="254" cy="236"></circle><circle r="16" cx="13" cy="131"></circle><circle r="21" cx="320" cy="129"></circle><circle r="10" cx="800" cy="72"></circle><circle r="9" cx="21" cy="309"></circle><circle r="18" cx="677" cy="415"></circle><circle r="19" cx="402" cy="531"></circle><circle r="6" cx="78" cy="506"></circle><circle r="9" cx="326" cy="371"></circle><circle r="10" cx="3" cy="243"></circle><circle r="17" cx="286" cy="30"></circle><circle r="11" cx="196" cy="532"></circle><circle r="22" cx="156" cy="500"></circle><circle r="11" cx="602" cy="108"></circle><circle r="7" cx="768" cy="534"></circle><circle r="21" cx="808" cy="317"></circle><circle r="9" cx="152" cy="81"></circle><circle r="11" cx="179" cy="319"></circle><circle r="18" cx="229" cy="415"></circle><circle r="8" cx="72" cy="89"></circle><circle r="8" cx="11" cy="469"></circle><circle r="21" cx="296" cy="309"></circle><circle r="18" cx="75" cy="189"></circle><circle r="12" cx="308" cy="207"></circle><circle r="7" cx="344" cy="266"></circle><circle r="16" cx="127" cy="194"></circle><circle r="14" cx="627" cy="551"></circle><circle r="6" cx="412" cy="378"></circle><circle r="6" cx="476" cy="153"></circle><circle r="21" cx="217" cy="134"></circle><circle r="18" cx="550" cy="37"></circle><circle r="15" cx="389" cy="425"></circle><circle r="18" cx="840" cy="3"></circle><circle r="20" cx="655" cy="175"></circle><circle r="13" cx="482" cy="40"></circle><circle r="7" cx="692" cy="208"></circle><circle r="10" cx="828" cy="254"></circle><circle r="21" cx="401" cy="106"></circle><circle r="19" cx="96" cy="415"></circle><circle r="21" cx="641" cy="51"></circle><circle r="6" cx="781" cy="382"></circle><circle r="6" cx="525" cy="136"></circle><circle r="22" cx="336" cy="590"></circle><circle r="11" cx="790" cy="143"></circle><circle r="22" cx="153" cy="426"></circle><circle r="16" cx="546" cy="498"></circle><circle r="6" cx="698" cy="280"></circle><circle r="12" cx="203" cy="47"></circle><circle r="7" cx="678" cy="11"></circle><circle r="11" cx="808" cy="482"></circle><circle r="12" cx="468" cy="203"></circle><circle r="9" cx="507" cy="243"></circle><circle r="8" cx="686" cy="528"></circle><circle r="12" cx="706" cy="135"></circle><circle r="22" cx="190" cy="377"></circle><circle r="15" cx="565" cy="353"></circle><circle r="18" cx="50" cy="554"></circle><circle r="18" cx="502" cy="335"></circle><circle r="12" cx="577" cy="588"></circle><circle r="13" cx="747" cy="327"></circle><circle r="9" cx="450" cy="104"></circle><circle r="12" cx="240" cy="358"></circle><circle r="16" cx="140" cy="281"></circle><circle r="10" cx="452" cy="439"></circle><circle r="8" cx="578" cy="269"></circle><circle r="8" cx="824" cy="195"></circle><circle r="11" cx="841" cy="541"></circle><circle r="14" cx="863" cy="491"></circle><circle r="21" cx="678" cy="584"></circle><circle r="13" cx="8" cy="588"></circle></g></svg>