<?xml version="1.0" encoding="UTF-8"?>
<svg xmlns="http://www.w3.org/2000/svg" xmlns:xlink="http://www.w3.org/1999/xlink" width="505.3pt" height="553.7pt" viewBox="0 0 505.3 553.7" version="1.1">
<defs>
<clipPath id="clip1">
  <path d="M 0 383 L 505.300781 383 L 505.300781 553.699219 L 0 553.699219 Z M 0 383 "/>
</clipPath>
</defs>
<g id="surface1">
<g clip-path="url(#clip1)" clip-rule="nonzero">
<path style=" stroke:none;fill-rule:evenodd;fill:rgb(13.719177%,12.156677%,12.547302%);fill-opacity:1;" d="M 107.199219 408.835938 L 81.539063 408.835938 L 81.539063 419.644531 C 72.964844 412.878906 62.136719 408.835938 50.367188 408.835938 C 22.554688 408.835938 0.0078125 431.382813 0.0078125 459.195313 C 0.0078125 487.007813 22.554688 509.554688 50.367188 509.554688 C 62.136719 509.554688 72.964844 505.511719 81.539063 498.746094 L 81.539063 504.148438 C 81.539063 536.957031 38.367188 536 25.027344 516.398438 L 7.441406 533.527344 C 19.074219 546.449219 34.496094 553.542969 54.441406 553.675781 L 60.199219 553.675781 C 86.046875 553.675781 107.199219 532.523438 107.199219 506.675781 Z M 403.597656 383.597656 L 429.253906 383.597656 L 429.253906 449.410156 L 470.621094 409.433594 L 505.03125 409.433594 L 462.328125 450.84375 L 462.585938 450.84375 L 505.390625 508.46875 L 475.117188 508.46875 L 444.882813 467.765625 L 429.613281 482.570313 L 429.253906 482.242188 L 429.253906 508.46875 L 403.597656 508.46875 Z M 336.902344 408.835938 C 365.789063 408.835938 389.207031 431.273438 389.207031 458.953125 C 389.207031 461.898438 388.941406 464.78125 388.433594 467.585938 L 311.535156 467.585938 C 313.957031 475.746094 319.71875 482.382813 327.160156 485.765625 L 327.164063 485.769531 C 338.597656 491.515625 359.191406 489.714844 366.792969 477.234375 L 383.582031 489.902344 C 369.933594 503.550781 360.917969 509.070313 336.902344 509.070313 C 312.882813 509.070313 284.59375 486.632813 284.59375 458.953125 C 284.59375 431.273438 308.011719 408.835938 336.902344 408.835938 Z M 365.03125 449.480469 C 361.25 437.972656 350.761719 429.695313 338.414063 429.695313 C 326.070313 429.695313 315.582031 437.972656 311.796875 449.480469 Z M 270.742188 408.835938 L 245.082031 408.835938 L 245.082031 461.691406 L 245.058594 517.949219 C 244.566406 534.328125 233.015625 529.222656 220.144531 530.074219 L 220.144531 553.675781 L 223.742188 553.675781 C 250.550781 553.675781 270.742188 551.945313 270.742188 526.09375 Z M 175.574219 408.835938 C 205.15625 408.835938 229.136719 431.273438 229.136719 458.953125 C 229.136719 486.632813 205.15625 509.070313 175.574219 509.070313 C 145.992188 509.070313 122.011719 486.632813 122.011719 458.953125 C 122.011719 431.273438 145.992188 408.835938 175.574219 408.835938 Z M 175.574219 431.273438 C 190.621094 431.273438 202.824219 443.667969 202.824219 458.953125 C 202.824219 474.242188 190.621094 486.632813 175.574219 486.632813 C 160.523438 486.632813 148.324219 474.242188 148.324219 458.953125 C 148.324219 443.667969 160.523438 431.273438 175.574219 431.273438 Z M 81.539063 456.578125 L 81.539063 461.691406 C 80.25 475.691406 68.476563 486.652344 54.140625 486.652344 C 38.945313 486.652344 26.625 474.332031 26.625 459.136719 C 26.625 443.9375 38.945313 431.617188 54.140625 431.617188 C 68.476563 431.617188 80.25 442.578125 81.539063 456.578125 Z M 81.539063 456.578125 "/>
</g>
<path style=" stroke:none;fill-rule:evenodd;fill:rgb(0%,65.039063%,31.37207%);fill-opacity:1;" d="M 252.699219 -0.0742188 C 346.632813 -0.0742188 422.777344 76.074219 422.777344 170.003906 C 422.777344 242.285156 377.683594 304.027344 314.101563 328.652344 C 314.53125 328.484375 314.964844 328.316406 315.394531 328.144531 C 312.269531 329.171875 308.929688 329.730469 305.457031 329.730469 C 287.867188 329.730469 273.605469 315.46875 273.605469 297.878906 C 273.605469 285.042969 281.199219 273.980469 292.136719 268.9375 C 292.9375 268.617188 293.734375 268.289063 294.527344 267.953125 C 294.675781 267.898438 294.828125 267.84375 294.976563 267.792969 L 294.976563 267.753906 C 332.75 251.394531 359.179688 213.789063 359.179688 170.003906 C 359.179688 111.199219 311.507813 63.523438 252.699219 63.523438 C 193.890625 63.523438 146.21875 111.199219 146.21875 170.003906 C 146.21875 213.796875 172.65625 251.40625 210.4375 267.761719 L 210.421875 267.753906 L 210.421875 267.789063 C 210.566406 267.84375 210.714844 267.894531 210.863281 267.945313 L 210.871094 267.949219 C 211.667969 268.289063 212.46875 268.621094 213.273438 268.941406 C 224.207031 273.988281 231.792969 285.046875 231.792969 297.875 C 231.792969 315.46875 217.53125 329.726563 199.941406 329.726563 C 196.472656 329.726563 193.128906 329.171875 190 328.144531 C 190.445313 328.320313 190.890625 328.492188 191.335938 328.667969 C 127.730469 304.050781 82.621094 242.300781 82.621094 170.003906 C 82.621094 76.074219 158.765625 -0.0742188 252.699219 -0.0742188 Z M 252.75 106.769531 C 287.742188 106.769531 316.105469 135.136719 316.105469 170.128906 C 316.105469 205.117188 287.742188 233.484375 252.75 233.484375 C 217.757813 233.484375 189.390625 205.117188 189.390625 170.128906 C 189.390625 135.136719 217.757813 106.769531 252.75 106.769531 Z M 252.75 106.769531 "/>
</g>
</svg>
