<svg id="visual" viewBox="0 0 900 600" width="900" height="600" xmlns="http://www.w3.org/2000/svg" xmlns:xlink="http://www.w3.org/1999/xlink" version="1.1"><rect x="0" y="0" width="900" height="600" fill="#ffffff"></rect><path d="M0 205L100 153L200 246L300 224L400 272L500 236L600 256L700 281L800 278L900 245L900 601L800 601L700 601L600 601L500 601L400 601L300 601L200 601L100 601L0 601Z" fill="#ffe4c5"></path><path d="M0 242L100 324L200 227L300 303L400 251L500 220L600 290L700 202L800 232L900 208L900 601L800 601L700 601L600 601L500 601L400 601L300 601L200 601L100 601L0 601Z" fill="#ffdbb1"></path><path d="M0 284L100 232L200 343L300 329L400 277L500 279L600 264L700 285L800 254L900 264L900 601L800 601L700 601L600 601L500 601L400 601L300 601L200 601L100 601L0 601Z" fill="#ffd19d"></path><path d="M0 358L100 349L200 382L300 390L400 306L500 380L600 383L700 364L800 373L900 301L900 601L800 601L700 601L600 601L500 601L400 601L300 601L200 601L100 601L0 601Z" fill="#ffc88a"></path><path d="M0 371L100 415L200 402L300 412L400 407L500 392L600 404L700 406L800 379L900 314L900 601L800 601L700 601L600 601L500 601L400 601L300 601L200 601L100 601L0 601Z" fill="#ffbe77"></path><path d="M0 370L100 377L200 431L300 381L400 405L500 369L600 425L700 406L800 381L900 356L900 601L800 601L700 601L600 601L500 601L400 601L300 601L200 601L100 601L0 601Z" fill="#ffb463"></path><path d="M0 455L100 464L200 429L300 459L400 438L500 482L600 432L700 480L800 474L900 411L900 601L800 601L700 601L600 601L500 601L400 601L300 601L200 601L100 601L0 601Z" fill="#ffaa50"></path><path d="M0 511L100 463L200 465L300 442L400 461L500 443L600 447L700 477L800 471L900 456L900 601L800 601L700 601L600 601L500 601L400 601L300 601L200 601L100 601L0 601Z" fill="#ff9f3c"></path><path d="M0 543L100 526L200 487L300 493L400 508L500 498L600 502L700 489L800 485L900 485L900 601L800 601L700 601L600 601L500 601L400 601L300 601L200 601L100 601L0 601Z" fill="#ff9425"></path><path d="M0 535L100 529L200 560L300 558L400 566L500 534L600 557L700 528L800 551L900 572L900 601L800 601L700 601L600 601L500 601L400 601L300 601L200 601L100 601L0 601Z" fill="#ff8800"></path></svg>