<svg class="img-fluid d-inline-block" id="outputsvg" xmlns="http://www.w3.org/2000/svg"
style="transform-origin: 50% 50%; cursor: move; max-width: 60px; transition: none 0s ease 0s;"
width="60" viewBox="0 0 2210 2380">
<g id="l2qFAeMFNMEwXOYU9A7qS3K" fill="rgb(45,28,56)"
    style="transform: none; transform-origin: 50% 50%;">
    <g style="transform: none;">
        <path id="peQJ24VCZ"
            d="M970 2349 c-59 -21 -115 -68 -135 -113 -11 -25 -24 -32 -95 -53 -99 -28 -118 -38 -199 -99 -73 -54 -219 -221 -273 -310 -46 -75 -101 -202 -118 -272 -13 -55 -16 -174 -5 -191 3 -6 -4 -42 -16 -81 -13 -43 -18 -81 -15 -96 11 -41 59 -84 96 -84 18 0 33 -6 37 -15 9 -25 58 -45 108 -45 32 0 45 -4 45 -14 0 -8 -83 -125 -185 -260 l-186 -246 17 -25 c19 -29 50 -49 63 -41 4 3 64 96 132 206 114 184 149 227 149 184 0 -9 -32 -107 -71 -217 l-71 -200 23 -19 c27 -20 67 -33 76 -25 4 5 131 494 133 515 0 1 6 2 14 2 9 0 15 -17 18 -53 8 -103 93 -242 193 -318 30 -23 55 -46 55 -51 0 -5 -9 -21 -20 -35 -30 -38 -26 -92 10 -141 17 -23 30 -51 30 -63 0 -12 9 -37 21 -55 41 -68 110 -95 185 -74 41 12 47 11 67 -7 66 -61 134 -56 198 14 53 57 64 90 63 194 l-1 97 76 23 c146 46 294 170 352 294 29 61 49 157 49 232 0 40 2 42 56 73 71 40 147 110 169 157 26 55 31 217 11 328 -20 104 -73 232 -136 325 -56 84 -168 194 -253 249 -48 31 -67 49 -67 65 -1 32 -33 98 -69 139 -90 102 -379 160 -531 106z m199 -55 c21 -4 31 -12 31 -24 0 -16 -11 -18 -119 -17 -65 1 -117 5 -114 9 7 12 95 37 134 37 20 1 51 -2 68 -5z m66 -176 c132 -30 258 -82 350 -143 91 -61 179 -145 152 -145 -9 0 -19 -10 -23 -24 -5 -21 -9 -23 -52 -18 -26 3 -53 11 -60 19 -19 18 -91 17 -98 -2 -4 -9 -2 -49 3 -90 5 -41 9 -75 8 -75 0 0 -34 9 -74 20 -103 29 -276 50 -476 59 -157 7 -371 0 -437 -15 -21 -4 -28 -2 -28 10 0 15 37 23 130 29 l45 2 0 45 0 45 -47 3 c-46 3 -48 5 -48 32 0 33 -27 46 -81 38 -29 -5 -29 -3 28 54 75 76 150 122 243 147 159 43 301 46 465 9z m375 -486 c0 -4 27 -16 60 -26 33 -11 66 -26 73 -35 10 -12 9 -13 -1 -7 -8 5 -57 23 -110 42 -82 29 -91 34 -59 34 20 0 37 -3 37 -8z m-540 -42 c-19 -13 -30 -13 -30 0 0 6 10 10 23 10 18 0 19 -2 7 -10z m-614 -71 c13 -31 23 -41 45 -46 22 -4 29 -11 29 -28 0 -13 9 -26 23 -33 22 -10 22 -11 1 -11 -35 -1 -124 106 -124 150 0 20 11 7 26 -32z m133 19 c12 -15 11 -18 -3 -18 -10 0 -16 8 -16 22 0 12 1 19 3 17 1 -2 9 -12 16 -21z m651 -29 c0 -18 -2 -20 -15 -9 -13 11 -13 15 -3 21 18 12 18 12 18 -12z m-375 -184 c43 -68 85 -95 147 -95 l47 0 3 -47 c3 -42 8 -51 44 -78 39 -30 41 -33 28 -56 -7 -13 -13 -46 -14 -73 -1 -145 78 -207 205 -161 22 8 45 14 50 15 6 0 9 -27 7 -69 -3 -64 -2 -70 24 -90 27 -21 92 -29 129 -15 26 10 45 60 45 119 l0 56 -50 -2 c-27 -2 -53 0 -56 4 -4 4 -19 7 -33 7 -25 0 -25 1 9 23 19 12 42 30 50 40 14 17 17 18 29 3 8 -10 29 -16 52 -16 34 0 39 3 45 28 11 50 13 52 54 52 l41 0 -5 -42 c-3 -24 -8 -68 -11 -98 -22 -200 -224 -369 -496 -414 -185 -31 -378 38 -510 182 -104 113 -129 212 -121 468 4 109 4 112 28 117 18 3 24 0 24 -15 0 -10 10 -22 24 -28 25 -9 50 -38 78 -90 16 -28 22 -31 55 -28 30 2 38 8 43 27 l6 24 17 -26 c9 -15 22 -49 28 -77 l11 -51 46 3 47 3 -2 62 c-2 90 -37 163 -95 197 -24 14 -60 28 -79 32 -19 3 -46 10 -61 16 l-28 10 32 47 c32 46 69 91 74 91 2 0 19 -25 39 -55z m813 28 c-10 -2 -28 -2 -40 0 -13 2 -5 4 17 4 22 1 32 -1 23 -4z m-178 -189 c36 -15 80 -24 112 -24 l53 0 -49 -28 c-35 -19 -56 -40 -72 -70 -19 -36 -23 -39 -26 -20 -2 15 -13 24 -35 30 -20 5 -33 15 -33 24 0 9 -13 28 -29 44 -18 19 -30 43 -34 69 l-5 41 29 -21 c16 -11 56 -31 89 -45z m-1080 -68 c0 -2 -7 -9 -15 -16 -12 -10 -15 -10 -15 4 0 9 7 16 15 16 8 0 15 -2 15 -4z m948 -142 c2 -1 -22 -11 -53 -20 -55 -18 -58 -18 -71 0 -7 11 -11 23 -8 27 4 7 123 1 132 -7z m-503 -624 c39 -12 51 -19 35 -20 -14 0 -34 -7 -44 -15 -11 -8 -23 -15 -28 -15 -13 0 -40 48 -33 60 8 12 -1 13 70 -10z m259 -39 l69 -1 -7 -31 c-3 -17 -6 -40 -6 -50 0 -25 -33 -29 -45 -4 -7 13 -22 21 -47 23 -32 3 -39 -1 -52 -26 -19 -36 -72 -82 -94 -82 -9 0 -30 11 -47 24 l-29 23 24 8 c14 4 38 17 53 28 25 17 28 25 25 61 l-3 42 45 -7 c25 -4 76 -8 114 -8z">
        </path>
        <path id="p1BZDSjMLO"
            d="M920 855 c-8 -10 -11 -37 -8 -81 4 -58 8 -70 32 -90 39 -34 123 -34 163 0 25 22 28 31 28 88 l0 63 -46 3 c-45 3 -47 2 -54 -30 l-7 -33 -10 35 c-6 19 -12 41 -14 48 -5 17 -69 15 -84 -3z">
        </path>
    </g>
</g>
<g id="l6qQYPj4UKiXJqhKyaktm6e" fill="rgb(103,113,126)"
    style="transform: none; transform-origin: 50% 50%;">
    <g style="transform: none;">
        <path id="pazuocoAC"
            d="M1137 1223 c-10 -9 -9 -43 1 -43 5 0 27 -16 49 -35 38 -32 43 -34 74 -23 19 6 40 13 47 14 26 7 -10 84 -39 84 -4 0 -9 -9 -12 -20 -7 -27 -31 -25 -51 5 -16 24 -54 34 -69 18z">
        </path>
        <path id="pj3taa9GS"
            d="M770 375 c-23 -25 -24 -27 -10 -68 9 -24 26 -47 41 -56 23 -13 30 -12 73 9 37 17 50 20 59 11 15 -16 -34 -57 -78 -67 -44 -9 -46 -12 -30 -44 37 -72 135 -94 195 -44 17 15 38 40 46 56 14 28 17 29 31 15 14 -14 14 -19 -6 -57 -27 -53 -27 -55 12 -73 59 -28 113 -1 152 76 25 51 33 130 19 185 -11 39 -24 23 -20 -25 1 -27 -1 -58 -6 -71 -14 -41 -31 -19 -32 43 l-1 60 -95 1 c-102 2 -205 22 -278 54 -24 11 -45 20 -47 20 -1 0 -12 -11 -25 -25z m420 -250 c-9 -11 -16 -13 -23 -6 -7 7 -6 15 3 26 9 11 16 13 23 6 7 -7 6 -15 -3 -26z">
        </path>
    </g>
</g>
<g id="l4hlwKXVQqHXDWC2bMei9Wz" fill="rgb(255,212,1)"
    style="transform: none; transform-origin: 50% 50%;">
    <g style="transform: none;">
        <path id="pyeVOVeoz"
            d="M635 1630 c-4 -6 8 -24 25 -42 l31 -31 92 8 c208 18 229 12 293 -86 24 -37 60 -79 78 -93 37 -28 100 -42 141 -32 41 10 13 36 -38 36 -37 0 -46 6 -109 72 -63 65 -79 98 -47 98 7 0 40 -29 74 -65 47 -49 69 -65 90 -65 22 0 26 3 20 18 -3 9 -8 49 -10 87 -4 67 -5 70 -32 76 -15 4 -38 7 -51 8 l-23 1 20 -26 c11 -15 18 -30 15 -35 -11 -19 -34 -8 -69 33 l-36 42 -164 4 c-163 4 -165 4 -165 -17 0 -26 -20 -27 -53 -1 -27 21 -72 27 -82 10z m365 -35 c-13 -16 -40 -9 -40 9 0 21 12 26 32 15 15 -8 17 -13 8 -24z">
        </path>
        <path id="pRrrbzqve"
            d="M543 1623 c-26 -5 -31 -39 -12 -74 6 -12 8 -27 5 -35 -10 -25 -36 -3 -53 45 l-16 47 -39 -10 c-42 -11 -43 -16 -27 -82 15 -60 88 -141 134 -150 47 -8 72 9 99 69 12 29 30 58 39 66 15 12 13 16 -21 41 -21 15 -44 42 -52 59 -7 17 -18 30 -24 30 -6 -1 -21 -4 -33 -6z m56 -152 c8 -14 7 -20 -2 -24 -20 -7 -37 4 -37 24 0 25 26 25 39 0z">
        </path>
        <path id="pNqcSPVDS"
            d="M1322 1517 c11 -174 145 -295 338 -304 75 -4 90 -2 130 19 70 38 119 123 88 154 -12 12 -21 7 -65 -39 -52 -56 -101 -77 -175 -77 -46 0 -129 41 -162 81 -39 46 -49 74 -55 154 -5 62 -8 70 -28 73 -16 2 -22 -3 -25 -20 -5 -34 -34 -30 -30 5 2 15 -2 27 -9 27 -8 0 -10 -21 -7 -73z m54 -28 c3 -6 1 -16 -5 -22 -9 -9 -14 -8 -21 3 -9 15 -4 30 10 30 5 0 12 -5 16 -11z">
        </path>
        <path id="pYSCeQtJu"
            d="M316 1551 c-9 -13 11 -107 32 -154 38 -85 119 -147 192 -147 49 0 108 36 143 88 54 79 99 119 147 131 57 15 94 35 98 56 3 12 -2 15 -24 11 -15 -3 -48 -8 -73 -11 -25 -3 -65 -16 -89 -28 -35 -18 -48 -33 -72 -84 -31 -65 -65 -93 -115 -93 -75 0 -164 84 -193 182 -16 53 -33 71 -46 49z">
        </path>
        <path id="pwQx3HIh6"
            d="M1460 1510 c0 -90 52 -161 136 -186 73 -21 124 -8 180 47 24 24 44 46 44 50 0 3 -10 11 -22 16 -19 9 -29 5 -56 -18 -24 -22 -43 -29 -73 -29 -83 0 -134 40 -146 116 -6 41 -17 54 -45 54 -15 0 -18 -9 -18 -50z">
        </path>
        <path id="pLvipV86i"
            d="M1560 1519 c0 -18 21 -53 44 -71 26 -21 84 -23 110 -3 26 20 16 28 -67 60 -75 28 -87 30 -87 14z">
        </path>
        <path id="pQSlvHdPp"
            d="M965 1500 c-3 -11 -19 -27 -36 -37 -16 -9 -29 -22 -29 -28 0 -24 64 -106 93 -122 22 -11 45 -14 80 -10 95 12 99 52 5 48 -60 -2 -95 16 -85 43 5 13 11 15 26 6 21 -11 61 -14 61 -4 0 10 -62 99 -78 112 -22 17 -30 15 -37 -8z m15 -55 c10 -12 10 -19 2 -27 -15 -15 -48 14 -38 31 10 15 21 14 36 -4z">
        </path>
        <path id="p7yFfNLwL"
            d="M232 1352 c-92 -117 -112 -262 -37 -262 22 0 25 4 25 38 0 44 24 99 73 165 l35 49 -17 39 c-9 21 -18 39 -21 39 -3 0 -29 -31 -58 -68z">
        </path>
        <path id="pUXU9A88O"
            d="M318 1253 c-51 -70 -58 -86 -58 -138 0 -107 110 -128 202 -38 34 33 38 43 38 85 0 43 -3 50 -26 58 -35 14 -37 13 -52 -11 -17 -27 -10 -34 17 -18 24 16 35 8 26 -20 -7 -22 -35 -35 -75 -36 -21 0 -26 -5 -28 -33 -3 -25 -8 -32 -20 -30 -28 5 -27 59 2 98 14 19 33 45 42 58 17 22 16 24 -8 48 l-25 26 -35 -49z">
        </path>
        <path id="pI9Pafewa"
            d="M1847 1219 c-17 -12 -27 -30 -27 -46 0 -22 2 -24 16 -12 18 14 48 69 41 75 -2 2 -16 -5 -30 -17z">
        </path>
        <path id="p1GT7JvO3E"
            d="M1249 1071 c-13 -11 -22 -22 -19 -24 7 -8 139 -12 146 -5 10 11 -49 48 -76 48 -15 0 -38 -9 -51 -19z">
        </path>
        <path id="p5y6joelx"
            d="M1202 988 c-13 -17 0 -79 22 -97 27 -23 165 18 205 60 29 31 19 35 -110 44 -84 5 -107 4 -117 -7z">
        </path>
    </g>
</g>
<g id="l3zwZI0ZsYQMYFFDQQSIu5N" fill="rgb(255,255,255)"
    style="transform: none; transform-origin: 50% 50%;">
    <g style="transform: none;">
        <path id="pyLcn70y6"
            d="M992 2315 c-50 -15 -112 -60 -112 -80 0 -12 25 -14 133 -13 154 2 261 -16 405 -67 53 -19 98 -32 100 -30 11 11 -34 46 -94 72 -35 15 -64 31 -64 35 0 16 20 17 60 3 39 -14 41 -14 29 1 -54 65 -342 115 -457 79z m296 -57 c2 -12 -3 -18 -15 -18 -26 0 -47 16 -38 29 10 18 49 9 53 -11z">
        </path>
        <path id="p16r5CtfZH"
            d="M895 2169 c-115 -14 -221 -45 -286 -85 -31 -19 -96 -76 -145 -127 -87 -91 -88 -92 -59 -97 45 -8 41 -27 -6 -35 -40 -7 -99 -50 -99 -72 0 -5 31 1 70 14 89 30 195 42 188 22 -3 -8 -24 -18 -49 -22 -147 -27 -259 -76 -259 -113 0 -16 2 -16 18 -2 25 23 93 50 110 43 21 -8 5 -23 -47 -46 -41 -17 -138 -99 -119 -99 4 0 29 14 56 30 68 43 173 76 298 95 136 20 431 20 574 1 58 -8 125 -17 150 -20 62 -7 265 -61 348 -92 95 -36 248 -117 310 -164 28 -22 52 -36 52 -31 0 9 -62 67 -121 113 -29 22 -32 27 -16 33 12 5 31 -4 61 -29 57 -47 84 -46 31 0 -55 50 -191 128 -259 150 -31 11 -56 25 -56 32 0 33 113 -6 235 -84 87 -54 105 -60 88 -30 -23 41 -254 166 -307 166 -20 0 -31 19 -18 32 12 12 195 -59 256 -98 22 -15 36 -20 34 -12 -6 18 -89 80 -143 107 -30 15 -42 27 -38 36 7 20 8 20 70 -15 29 -17 53 -27 53 -24 0 15 -73 104 -132 160 -124 119 -274 196 -473 242 -109 25 -262 34 -370 21z m-356 -298 c19 -12 4 -31 -25 -31 -35 0 -30 34 6 39 3 0 11 -3 19 -8z m106 -81 c0 -18 -33 -26 -48 -11 -9 9 -8 14 3 21 21 14 45 8 45 -10z m919 -6 c19 -7 22 -34 4 -34 -22 0 -41 17 -34 29 8 13 9 13 30 5z m-1096 -72 c5 -17 -27 -27 -41 -13 -9 9 -8 14 3 21 18 11 32 8 38 -8z m1112 -28 c0 -9 -7 -14 -17 -12 -25 5 -28 28 -4 28 12 0 21 -6 21 -16z m234 -130 c17 -7 22 -34 7 -34 -21 0 -41 13 -41 26 0 15 10 17 34 8z">
        </path>
        <path id="pM8kf4cee"
            d="M804 1411 c-18 -11 -49 -45 -70 -76 -42 -65 -101 -112 -149 -121 l-32 -6 -6 -133 c-8 -194 4 -310 40 -388 55 -116 174 -222 307 -272 300 -113 701 28 816 287 20 45 32 138 45 338 3 52 7 103 8 113 2 16 -9 18 -98 20 -90 2 -107 5 -166 34 -37 18 -89 53 -116 77 -36 32 -53 42 -64 35 -8 -5 -37 -9 -66 -9 -34 0 -67 -8 -95 -22 -26 -14 -66 -24 -103 -26 -78 -4 -113 17 -167 103 -22 36 -43 65 -47 65 -3 0 -20 -9 -37 -19z m457 -155 c25 -1 51 -6 58 -11 17 -10 41 -68 41 -99 0 -14 13 -37 30 -54 17 -17 30 -37 30 -46 0 -9 13 -19 33 -24 26 -7 32 -14 34 -38 3 -33 -17 -60 -67 -91 -47 -28 -168 -65 -189 -58 -31 9 -59 48 -72 97 -12 43 -11 51 10 96 13 28 22 54 20 60 -2 5 -24 25 -49 44 -37 28 -46 40 -48 70 -3 31 1 39 25 52 18 10 41 14 63 11 19 -3 56 -7 81 -9z m-492 -66 c77 -17 130 -56 156 -114 30 -66 36 -119 13 -124 -12 -2 -19 9 -27 49 -14 64 -38 98 -90 127 -45 25 -47 24 -29 -25 9 -25 9 -36 0 -45 -8 -8 -15 -3 -29 22 -26 48 -63 90 -78 90 -18 0 -28 17 -19 31 3 6 18 8 33 5 14 -4 46 -11 70 -16z m943 -120 c-12 -21 -22 -46 -22 -55 0 -10 -6 -15 -17 -13 -10 2 -17 10 -15 17 1 7 -5 11 -13 9 -19 -3 -41 -40 -50 -81 -6 -30 -22 -32 -38 -5 -15 23 29 107 66 127 16 9 43 25 61 37 44 30 57 13 28 -36z m-727 -282 c14 -55 40 -71 66 -39 10 13 19 32 19 43 0 13 6 18 18 16 28 -6 20 -67 -13 -95 -33 -29 -67 -29 -100 0 -30 26 -44 89 -25 112 16 20 22 13 35 -37z m463 -14 c7 -60 46 -67 60 -10 11 40 42 49 42 11 0 -72 -59 -115 -108 -78 -29 21 -37 50 -27 90 8 32 29 24 33 -13z">
        </path>
        <path id="pwqPQFXpL"
            d="M1960 1277 c0 -64 -29 -124 -82 -172 -28 -25 -54 -45 -59 -45 -5 0 -9 -7 -9 -16 0 -13 7 -11 41 8 90 50 148 141 135 212 -9 47 -26 56 -26 13z">
        </path>
    </g>
</g>
</svg>